<svg width="31" height="31" viewBox="0 0 31 31" fill="none" xmlns="http://www.w3.org/2000/svg">
<circle cx="15.124" cy="15.4999" r="15.124" fill="#153D80"/>
<path d="M15.1188 8.49512C13.2844 8.49512 11.793 9.98651 11.793 11.821C11.793 13.6205 13.2003 15.0768 15.0348 15.1399C15.0908 15.1329 15.1468 15.1329 15.1889 15.1399C15.2029 15.1399 15.2099 15.1399 15.2239 15.1399C15.2309 15.1399 15.2309 15.1399 15.2379 15.1399C17.0303 15.0768 18.4377 13.6205 18.4447 11.821C18.4447 9.98651 16.9533 8.49512 15.1188 8.49512Z" fill="#AEC7ED"/>
<path d="M18.6767 16.9973C16.7231 15.6949 13.5373 15.6949 11.5698 16.9973C10.6806 17.5924 10.1904 18.3976 10.1904 19.2589C10.1904 20.1201 10.6806 20.9183 11.5628 21.5064C12.543 22.1646 13.8314 22.4937 15.1197 22.4937C16.4081 22.4937 17.6964 22.1646 18.6767 21.5064C19.5589 20.9113 20.049 20.1131 20.049 19.2449C20.042 18.3836 19.5589 17.5854 18.6767 16.9973Z" fill="#AEC7ED"/>
</svg>
