<svg width="20" height="20" viewBox="0 0 20 20" fill="none" xmlns="http://www.w3.org/2000/svg">
<path d="M15.8337 12.5H4.16699C2.78628 12.5 1.66699 13.6193 1.66699 15C1.66699 16.3807 2.78628 17.5 4.16699 17.5H15.8337C17.2144 17.5 18.3337 16.3807 18.3337 15C18.3337 13.6193 17.2144 12.5 15.8337 12.5Z" stroke="white" stroke-width="1.5"/>
<path d="M5 7.5C5 5.14297 5 3.96447 5.73223 3.23223C6.46447 2.5 7.64297 2.5 10 2.5C12.357 2.5 13.5355 2.5 14.2677 3.23223C15 3.96447 15 5.14297 15 7.5C15 9.857 15 11.0355 14.2677 11.7677C13.5355 12.5 12.357 12.5 10 12.5C7.64297 12.5 6.46447 12.5 5.73223 11.7677C5 11.0355 5 9.857 5 7.5Z" stroke="white" stroke-width="1.5"/>
<path d="M9.99592 15H10.0034M5.83301 15H5.84048M14.1588 15H14.1663" stroke="white" stroke-width="2" stroke-linecap="round" stroke-linejoin="round"/>
<path d="M8.75 5H11.25" stroke="white" stroke-width="1.5" stroke-linecap="round" stroke-linejoin="round"/>
</svg>
