<svg width="20" height="20" viewBox="0 0 20 20" fill="none" xmlns="http://www.w3.org/2000/svg">
<path d="M16.832 2.5H3.16866C2.54322 2.5 2.23049 2.5 2.01397 2.64772C1.90673 2.72087 1.8181 2.81757 1.75505 2.93022C1.62774 3.15767 1.65886 3.46494 1.7211 4.07947C1.82498 5.1052 1.87691 5.61807 2.14885 5.98473C2.28436 6.16746 2.45617 6.32099 2.65378 6.43596C3.05032 6.66667 3.57229 6.66667 4.61623 6.66667H15.3844C16.4283 6.66667 16.9503 6.66667 17.3469 6.43596C17.5445 6.32099 17.7163 6.16746 17.8518 5.98473C18.1237 5.61807 18.1757 5.1052 18.2796 4.07947C18.3418 3.46494 18.3729 3.15767 18.2456 2.93022C18.1826 2.81757 18.0939 2.72087 17.9867 2.64772C17.7702 2.5 17.4574 2.5 16.832 2.5Z" stroke="black" stroke-width="1.5" stroke-linecap="round" stroke-linejoin="round"/>
<path d="M2.5 6.66699V10.8677C2.5 13.9943 2.5 15.5577 3.47631 16.529C4.45262 17.5003 6.02397 17.5003 9.16667 17.5003H10.8333C13.976 17.5003 15.5474 17.5003 16.5237 16.529C17.5 15.5577 17.5 13.9943 17.5 10.8677V6.66699" stroke="black" stroke-width="1.5" stroke-linecap="round" stroke-linejoin="round"/>
<path d="M8.33301 9.16699H11.6663" stroke="black" stroke-width="1.5" stroke-linecap="round"/>
</svg>
