<svg width="18" height="18" viewBox="0 0 18 18" fill="none" xmlns="http://www.w3.org/2000/svg">
<path d="M12.3305 16.0108L12.7447 15.4932C13.1086 15.0383 13.8814 15.075 14.1888 15.5616C14.5586 16.1471 15.4719 16.0307 15.7252 15.4922C15.7384 15.4642 15.7054 15.5342 15.7336 15.2919C15.7617 15.0496 15.75 14.9942 15.7265 14.8836L14.2842 8.07308C13.9217 6.36146 13.7405 5.50565 13.117 5.00282C12.4936 4.5 11.6136 4.5 9.8538 4.5H8.1462C6.38638 4.5 5.50646 4.5 4.883 5.00282C4.25953 5.50565 4.07828 6.36146 3.71579 8.07308L2.27348 14.8836C2.25003 14.9942 2.23831 15.0496 2.26646 15.2919C2.2946 15.5342 2.26166 15.4642 2.27483 15.4922C2.52813 16.0307 3.44142 16.1471 3.81124 15.5616C4.11864 15.075 4.8914 15.0383 5.25532 15.4932L5.66951 16.0108C6.19136 16.663 7.28114 16.663 7.803 16.0108L7.8681 15.9294C8.42183 15.2374 9.57818 15.2374 10.1319 15.9294L10.197 16.0108C10.7189 16.663 11.8087 16.663 12.3305 16.0108Z" stroke="white" stroke-width="1.5" stroke-linejoin="round"/>
<path d="M1.86252 7.125C1.42354 6.66899 1.50618 6.0817 1.50618 4.61382C1.50618 3.14595 1.50618 2.41202 1.94517 1.95601C2.38415 1.5 3.09068 1.5 4.50373 1.5H13.4964C14.9094 1.5 15.616 1.5 16.055 1.95601C16.4939 2.41202 16.4939 3.14595 16.4939 4.61382C16.4939 6.0817 16.5761 6.66899 16.1371 7.125" stroke="white" stroke-width="1.5" stroke-linecap="round"/>
<path d="M9 7.5H6.75" stroke="white" stroke-width="1.5" stroke-linecap="round" stroke-linejoin="round"/>
<path d="M10.5 10.5H6" stroke="white" stroke-width="1.5" stroke-linecap="round" stroke-linejoin="round"/>
</svg>
