<svg width="20" height="21" viewBox="0 0 20 21" fill="none" xmlns="http://www.w3.org/2000/svg">
<path d="M13.6877 3.99285L14.5127 3.16785C15.1962 2.48441 16.3043 2.48441 16.9877 3.16785C17.6712 3.8513 17.6712 4.95938 16.9877 5.64283L16.1627 6.46782M13.6877 3.99285L8.13831 9.54227C7.71538 9.96527 7.41536 10.4951 7.2703 11.0754L6.66699 13.4886L9.08024 12.8853C9.66049 12.7403 10.1903 12.4402 10.6133 12.0173L16.1627 6.46782M13.6877 3.99285L16.1627 6.46782" stroke="white" stroke-width="1.5" stroke-linejoin="round"/>
<path d="M15.8333 11.4056C15.8333 14.1452 15.8332 15.5149 15.0767 16.4369C14.9382 16.6057 14.7834 16.7604 14.6146 16.8989C13.6927 17.6556 12.3228 17.6556 9.58325 17.6556H9.16667C6.02397 17.6556 4.45263 17.6556 3.47632 16.6793C2.50002 15.703 2.5 14.1316 2.5 10.9889V10.5723C2.5 7.8327 2.5 6.46292 3.25662 5.54097C3.39514 5.37218 3.54992 5.21741 3.7187 5.07888C4.64066 4.32227 6.01043 4.32227 8.75 4.32227" stroke="white" stroke-width="1.5" stroke-linecap="round" stroke-linejoin="round"/>
</svg>
