<svg width="20" height="20" viewBox="0 0 20 20" fill="none" xmlns="http://www.w3.org/2000/svg">
<path d="M17.3117 15C17.9361 15 18.4327 14.6071 18.8787 14.0576C19.7916 12.9328 18.2927 12.034 17.7211 11.5938C17.14 11.1463 16.4912 10.8928 15.8333 10.8333M15 9.16667C16.1506 9.16667 17.0833 8.23392 17.0833 7.08333C17.0833 5.93274 16.1506 5 15 5" stroke="white" stroke-width="1.5" stroke-linecap="round"/>
<path d="M2.68798 15C2.06355 15 1.5669 14.6071 1.12096 14.0576C0.208084 12.9328 1.7069 12.034 2.27854 11.5938C2.85965 11.1463 3.50849 10.8928 4.16634 10.8333M4.58301 9.16667C3.43242 9.16667 2.49968 8.23392 2.49968 7.08333C2.49968 5.93274 3.43242 5 4.58301 5" stroke="white" stroke-width="1.5" stroke-linecap="round"/>
<path d="M6.73618 12.592C5.88469 13.1185 3.65216 14.1936 5.01193 15.5388C5.67616 16.196 6.41594 16.666 7.34603 16.666H12.6534C13.5834 16.666 14.3232 16.196 14.9874 15.5388C16.3472 14.1936 14.1147 13.1185 13.2632 12.592C11.2664 11.3573 8.73286 11.3573 6.73618 12.592Z" stroke="white" stroke-width="1.5" stroke-linecap="round" stroke-linejoin="round"/>
<path d="M12.9164 6.25065C12.9164 7.86148 11.6105 9.16732 9.99969 9.16732C8.38886 9.16732 7.08301 7.86148 7.08301 6.25065C7.08301 4.63982 8.38886 3.33398 9.99969 3.33398C11.6105 3.33398 12.9164 4.63982 12.9164 6.25065Z" stroke="white" stroke-width="1.5"/>
</svg>
