<svg width="20" height="21" viewBox="0 0 20 21" fill="none" xmlns="http://www.w3.org/2000/svg">
<path d="M16.25 4.73828L15.7336 13.0925C15.6016 15.2269 15.5357 16.2942 15.0007 17.0615C14.7361 17.4409 14.3956 17.761 14.0006 18.0016C13.2017 18.4883 12.1325 18.4883 9.99392 18.4883C7.8526 18.4883 6.78192 18.4883 5.98254 18.0007C5.58733 17.7597 5.24667 17.4389 4.98223 17.0589C4.4474 16.2904 4.38287 15.2217 4.25384 13.0843L3.75 4.73828" stroke="white" stroke-width="1.5" stroke-linecap="round"/>
<path d="M2.5 4.73893H17.5M13.3797 4.73893L12.8109 3.56537C12.433 2.78582 12.244 2.39603 11.9181 2.15294C11.8458 2.09902 11.7693 2.05105 11.6892 2.00952C11.3283 1.82227 10.8951 1.82227 10.0287 1.82227C9.14067 1.82227 8.69667 1.82227 8.32973 2.01737C8.24842 2.06061 8.17082 2.11052 8.09774 2.16657C7.76803 2.41952 7.58386 2.82356 7.21551 3.63165L6.71077 4.73893" stroke="white" stroke-width="1.5" stroke-linecap="round"/>
<path d="M7.91699 13.9053V8.90527" stroke="white" stroke-width="1.5" stroke-linecap="round"/>
<path d="M12.083 13.9053V8.90527" stroke="white" stroke-width="1.5" stroke-linecap="round"/>
</svg>
