<svg width="20" height="20" viewBox="0 0 20 20" fill="none" xmlns="http://www.w3.org/2000/svg">
<path d="M10.0016 7.50618C9.08113 7.50618 8.33496 8.06583 8.33496 8.7562C8.33496 9.44654 9.08113 10.0062 10.0016 10.0062C10.922 10.0062 11.6683 10.5659 11.6683 11.2562C11.6683 11.9465 10.922 12.5062 10.0016 12.5062M10.0016 7.50618C10.7273 7.50618 11.3446 7.85402 11.5734 8.33953M10.0016 7.50618V6.67285M10.0016 12.5062C9.27588 12.5062 8.65854 12.1584 8.42979 11.6729M10.0016 12.5062V13.3395" stroke="black" stroke-width="1.5" stroke-linecap="round"/>
<path d="M10.833 2.08887C10.833 2.08887 10.5696 2.08887 9.99967 2.08887C6.26772 2.08887 4.40175 2.08887 3.24237 3.24824C2.08301 4.40761 2.08301 6.27358 2.08301 10.0056C2.08301 13.7375 2.08301 15.6035 3.24237 16.7629C4.40175 17.9222 6.26772 17.9222 9.99967 17.9222C13.7316 17.9222 15.5976 17.9222 16.757 16.7629C17.9163 15.6035 17.9163 13.7375 17.9163 10.0056C17.9163 9.43563 17.9163 9.17222 17.9163 9.17222" stroke="black" stroke-width="1.5" stroke-linecap="round"/>
<path d="M17.9069 2.07715L14.4271 5.55898M13.7402 2.51195L13.8387 5.08819C13.8387 5.69539 14.2013 6.07371 14.8617 6.12143L17.4651 6.24382" stroke="black" stroke-width="1.5" stroke-linecap="round" stroke-linejoin="round"/>
</svg>
